<svg xmlns="http://www.w3.org/2000/svg" viewBox="0 0 80 96" fill="none">
  <!-- Shield outline -->
  <path d="M40 2 L74 16 V50 Q74 80 40 94 Q6 80 6 50 V16 Z" fill="#301506"/>
  <!-- Shield inner with gold border -->
  <path d="M40 8 L68 20 V48 Q68 74 40 86 Q12 74 12 48 V20 Z" fill="#301506" stroke="#FAB80A" stroke-width="2.5"/>
  <!-- Package bow -->
  <path d="M30 32 Q36 26 40 32 Q44 26 50 32" stroke="#FAB80A" stroke-width="2.5" fill="none" stroke-linecap="round"/>
  <line x1="40" y1="32" x2="40" y2="39" stroke="#FAB80A" stroke-width="2"/>
  <!-- u letterform -->
  <path d="M20 44v14c0 5 3.5 8 8 8s8-3 8-8V44h-4.5v13.5c0 2.5-1.3 4-3.5 4s-3.5-1.5-3.5-4V44H20z" fill="white"/>
  <!-- p letterform -->
  <path d="M39 44v22h4.5v-7c1 1.2 2.5 2 4.5 2 4 0 7-3 7-8.5S52 44 48 44c-2 0-3.5.8-4.5 2v-2H39zm4.5 8.5c0-3 1.8-4.5 4-4.5s4 1.5 4 4.5-1.8 4.5-4 4.5-4-1.5-4-4.5z" fill="white"/>
  <!-- s letterform -->
  <path d="M57 58.5c0 2 1.5 3 3.5 3.5l2 .5c1.2.3 1.8.7 1.8 1.5 0 1-1 1.7-2.5 1.7-1.8 0-3-.8-3.5-2l-3 2c1 2.2 3.5 3.5 6.5 3.5 4 0 7-2 7-5.2 0-2.5-1.8-3.5-4-4.2l-2-.5c-1-.3-1.5-.7-1.5-1.3 0-.8.8-1.3 2-1.3 1.5 0 2.5.7 3 1.5l3-1.8C67.5 45 65 44 62 44c-3.5 0-6 2-6 5 0 .2 0 .3 0 .5" fill="white" transform="translate(-3 0) scale(0.85)" transform-origin="60 52"/>
</svg>
