<svg xmlns="http://www.w3.org/2000/svg" viewBox="0 0 200 48" fill="none">
  <rect width="200" height="48" rx="3" fill="#15569C"/>
  <!-- Red accent stripe at top -->
  <rect x="0" y="0" width="200" height="5" rx="3 3 0 0" fill="#ED192D"/>
  <!-- Eagle head silhouette -->
  <path d="M16 38 L16 16 Q18 12 24 12 L38 12 Q42 12 44 16 L48 24 Q50 26 48 28 L42 32 Q38 36 32 38 Z M24 16 Q20 16 20 20 L20 34 Q28 32 34 28 L40 22 L36 16 Z" fill="white"/>
  <!-- Eagle eye -->
  <circle cx="26" cy="21" r="2" fill="#15569C"/>
  <!-- Eagle beak -->
  <path d="M36 18 L44 20 Q46 21 44 22 L36 22 Z" fill="#ED192D"/>
  <!-- U letterform -->
  <path d="M62 14v16c0 4 2.5 6 6 6s6-2 6-6V14h4v16c0 6.5-4 10-10 10s-10-3.5-10-10V14h4z" fill="white"/>
  <!-- S letterform -->
  <path d="M82 34c1.5 1.5 4 2.5 7 2.5 3.5 0 5.5-1.5 5.5-3.5 0-2-1.5-3-4.5-3.5l-3-.5c-4.5-.8-6.5-3-6.5-6.5 0-4.5 3.5-7.5 9-7.5 3 0 5.5 1 7.5 2.5l-2.5 3c-1.5-1.2-3.5-2-5.5-2-3 0-4.5 1.3-4.5 3.2 0 1.8 1.5 2.8 4.5 3.3l3 .5c4.5.8 6.5 3.2 6.5 6.8 0 4.5-4 7.5-9.5 7.5-3.5 0-6.5-1-8.5-3l2-3z" fill="white"/>
  <!-- P letterform -->
  <path d="M100 14h9c5.5 0 9 3 9 7.5S114.5 29 109 29h-5v11h-4V14zm4 3.5V26h5c3.2 0 5-1.8 5-4.2 0-2.5-1.8-4.3-5-4.3h-5z" fill="white"/>
  <!-- S letterform (second) -->
  <path d="M122 34c1.5 1.5 4 2.5 7 2.5 3.5 0 5.5-1.5 5.5-3.5 0-2-1.5-3-4.5-3.5l-3-.5c-4.5-.8-6.5-3-6.5-6.5 0-4.5 3.5-7.5 9-7.5 3 0 5.5 1 7.5 2.5l-2.5 3c-1.5-1.2-3.5-2-5.5-2-3 0-4.5 1.3-4.5 3.2 0 1.8 1.5 2.8 4.5 3.3l3 .5c4.5.8 6.5 3.2 6.5 6.8 0 4.5-4 7.5-9.5 7.5-3.5 0-6.5-1-8.5-3l2-3z" fill="white"/>
</svg>
